Coordinates
version=1
nRows=12
nColumns=24
inDegrees=yes

Units are S.I. units (second, meters, Newtons, ...)
Angles are in degrees.

endheader
time	pelvis_tilt	pelvis_list	pelvis_rotation	pelvis_tx	pelvis_ty	pelvis_tz	hip_flexion_r	hip_adduction_r	hip_rotation_r	knee_angle_r	ankle_angle_r	subtalar_angle_r	mtp_angle_r	hip_flexion_l	hip_adduction_l	hip_rotation_l	knee_angle_l	ankle_angle_l	subtalar_angle_l	mtp_angle_l	lumbar_extension	lumbar_bending	lumbar_rotation
      1.07083333	      0.16538447	     -4.68240627	     -3.95695257	     -0.14384170	      1.05669940	      0.33502685	    -14.51710075	      8.47319569	      2.47438764	     -5.68154505	      5.16850364	     -9.72116550	      5.98238844	     18.23903524	     -3.18678722	     -8.88797281	      6.65600366	      0.41468135	     -0.62192339	      6.72376752	      1.50909286	      9.33464329	      2.33743541
      1.07500000	      0.16604686	     -4.69747730	     -3.98002544	     -0.13798926	      1.05626644	      0.33485474	    -14.64388762	      8.44376555	      2.52701120	     -6.10566796	      5.13441576	     -9.70378740	      5.98411440	     18.19093754	     -3.13400026	     -8.74310240	      6.60958661	      0.40446185	     -0.49028493	      6.70616159	      1.56194068	      9.33274562	      2.33778169
      1.07916667	      0.18359987	     -4.70157890	     -3.88976388	     -0.13203792	      1.05581434	      0.33457043	    -14.79843689	      8.43096141	      2.52234771	     -6.50260851	      5.09653217	     -9.61234789	      5.99244467	     18.14788819	     -3.04389389	     -8.44249645	      6.47419465	      0.38080888	     -0.11606592	      6.64359401	      1.56821949	      9.35230677	      2.33654131
      1.08333333	      0.20381986	     -4.70899629	     -3.91945226	     -0.12615011	      1.05544725	      0.33441472	    -14.90737844	      8.39085719	      2.52951111	     -7.00179095	      5.05766123	     -9.60552077	      5.99515843	     18.09558824	     -2.99331536	     -8.32104711	      6.26213148	      0.35698376	     -0.03512550	      6.62926843	      1.61318499	      9.32491895	      2.34035684
      1.08750000	      0.23134721	     -4.70853810	     -3.83437079	     -0.12017549	      1.05505183	      0.33410130	    -15.02175235	      8.36904016	      2.41437644	     -7.49494327	      4.98073259	     -9.48245625	      6.01014337	     18.04942966	     -2.90558646	     -7.98500841	      5.99269868	      0.24828352	      0.22492671	      6.57133028	      1.57700631	      9.32188785	      2.34332113
      1.09166667	      0.26943084	     -4.69852405	     -3.87048350	     -0.11419044	      1.05474611	      0.33397508	    -15.12469733	      8.30635459	      2.43083433	     -8.04853745	      4.92977733	     -9.46504826	      6.01429661	     17.97100299	     -2.84861783	     -7.83221790	      5.67644383	      0.19585825	      0.27447066	      6.56042654	      1.63660909	      9.28557475	      2.35065873
      1.09583333	      0.29361515	     -4.67850869	     -3.79618343	     -0.10813422	      1.05439337	      0.33364462	    -15.19593953	      8.25598789	      2.26294923	     -8.61765446	      4.79773387	     -9.29750526	      6.03508182	     17.91475127	     -2.74832416	     -7.42788252	      5.33501639	     -0.04431871	      0.38063018	      6.51614154	      1.58121360	      9.25054335	      2.36245412
      1.10000000	      0.35123875	     -4.66309819	     -3.82668008	     -0.10210543	      1.05416286	      0.33352437	    -15.28403494	      8.18629469	      2.26761527	     -9.24107504	      4.73195945	     -9.26827697	      6.04100658	     17.81209273	     -2.69281640	     -7.25810276	      4.94085532	     -0.12757066	      0.39343578	      6.50747567	      1.65887610	      9.20664188	      2.37360938
      1.10416667	      0.44598699	     -4.62505587	     -3.62283325	     -0.09599678	      1.05388691	      0.33292123	    -15.38902110	      8.13227167	      1.84519424	     -9.86629237	      4.51817839	     -8.82932351	      6.10561834	     17.69147387	     -2.52769540	     -6.66384674	      4.54788863	     -0.66556214	      0.08257387	      6.42944006	      1.62342738	      9.18499056	      2.38274269
      1.10833333	      0.48528775	     -4.58042327	     -3.71362457	     -0.08986492	      1.05372526	      0.33284741	    -15.41331982	      8.00934873	      1.85540447	    -10.58319047	      4.44930037	     -8.81204957	      6.11402608	     17.56641457	     -2.46482152	     -6.46435186	      4.15078467	     -0.75600353	      0.07593527	      6.42295206	      1.66063579	      9.11414420	      2.38806309
      1.11250000	      0.59068400	     -4.49828389	     -3.59677763	     -0.08369151	      1.05357555	      0.33214562	    -15.46971082	      7.85504643	      1.40828512	    -11.33063410	      4.34431505	     -8.13858332	      6.30337583	     17.35171877	     -2.26735189	     -5.61656585	      3.83969103	     -1.49215774	     -1.16011460	      6.30477153	      1.55018559	      9.01085503	      2.33729762
      1.11666667	      0.64635079	     -4.45436250	     -3.64984255	     -0.07757192	      1.05347484	      0.33203428	    -15.46705007	      7.73880454	      1.38814615	    -12.12208935	      4.22914192	     -8.13365079	      6.31314460	     17.21666520	     -2.20253569	     -5.44508503	      3.40323837	     -1.62214401	     -1.12485881	      6.30055006	      1.61203000	      8.94227488	      2.34908814
